<mxfile host="Electron" agent="Mozilla/5.0 (Windows NT 10.0; Win64; x64) AppleWebKit/537.36 (KHTML, like Gecko) draw.io/24.7.17 Chrome/128.0.6613.36 Electron/32.0.1 Safari/537.36" version="24.7.17">
  <diagram name="Сторінка-1" id="JMo5G6vxdsGwMod-4tKG">
    <mxGraphModel dx="1050" dy="629" grid="1" gridSize="10" guides="1" tooltips="1" connect="1" arrows="1" fold="1" page="1" pageScale="1" pageWidth="827" pageHeight="1169" math="0" shadow="0">
      <root>
        <mxCell id="0" />
        <mxCell id="1" parent="0" />
        <mxCell id="_FEhoYvMoS7OMi0GwKXW-3" value="" style="edgeStyle=orthogonalEdgeStyle;rounded=0;orthogonalLoop=1;jettySize=auto;html=1;" edge="1" parent="1" source="_FEhoYvMoS7OMi0GwKXW-1" target="_FEhoYvMoS7OMi0GwKXW-2">
          <mxGeometry relative="1" as="geometry" />
        </mxCell>
        <mxCell id="_FEhoYvMoS7OMi0GwKXW-1" value="Початок" style="ellipse;whiteSpace=wrap;html=1;" vertex="1" parent="1">
          <mxGeometry x="46.25" y="10" width="90" height="50" as="geometry" />
        </mxCell>
        <mxCell id="_FEhoYvMoS7OMi0GwKXW-7" value="" style="edgeStyle=orthogonalEdgeStyle;rounded=0;orthogonalLoop=1;jettySize=auto;html=1;" edge="1" parent="1" source="_FEhoYvMoS7OMi0GwKXW-2" target="_FEhoYvMoS7OMi0GwKXW-6">
          <mxGeometry relative="1" as="geometry" />
        </mxCell>
        <mxCell id="_FEhoYvMoS7OMi0GwKXW-2" value="Ввід опору" style="shape=parallelogram;perimeter=parallelogramPerimeter;whiteSpace=wrap;html=1;fixedSize=1;" vertex="1" parent="1">
          <mxGeometry x="33.75" y="80" width="115" height="45" as="geometry" />
        </mxCell>
        <mxCell id="_FEhoYvMoS7OMi0GwKXW-10" value="" style="edgeStyle=orthogonalEdgeStyle;rounded=0;orthogonalLoop=1;jettySize=auto;html=1;" edge="1" parent="1" source="_FEhoYvMoS7OMi0GwKXW-6" target="_FEhoYvMoS7OMi0GwKXW-8">
          <mxGeometry relative="1" as="geometry" />
        </mxCell>
        <mxCell id="_FEhoYvMoS7OMi0GwKXW-6" value="Обчислення загального опору" style="whiteSpace=wrap;html=1;" vertex="1" parent="1">
          <mxGeometry x="38.75" y="140" width="105" height="52.5" as="geometry" />
        </mxCell>
        <mxCell id="_FEhoYvMoS7OMi0GwKXW-12" value="" style="edgeStyle=orthogonalEdgeStyle;rounded=0;orthogonalLoop=1;jettySize=auto;html=1;" edge="1" parent="1" source="_FEhoYvMoS7OMi0GwKXW-8" target="_FEhoYvMoS7OMi0GwKXW-11">
          <mxGeometry relative="1" as="geometry" />
        </mxCell>
        <mxCell id="_FEhoYvMoS7OMi0GwKXW-8" value="Вивід загального опору" style="shape=parallelogram;perimeter=parallelogramPerimeter;whiteSpace=wrap;html=1;fixedSize=1;" vertex="1" parent="1">
          <mxGeometry x="30" y="220" width="122.5" height="45" as="geometry" />
        </mxCell>
        <mxCell id="_FEhoYvMoS7OMi0GwKXW-14" value="" style="edgeStyle=orthogonalEdgeStyle;rounded=0;orthogonalLoop=1;jettySize=auto;html=1;" edge="1" parent="1" source="_FEhoYvMoS7OMi0GwKXW-11" target="_FEhoYvMoS7OMi0GwKXW-13">
          <mxGeometry relative="1" as="geometry" />
        </mxCell>
        <mxCell id="_FEhoYvMoS7OMi0GwKXW-11" value="Виклик функції &lt;code&gt;calculate&lt;/code&gt;&lt;div&gt;&lt;code&gt;DictionaryInfo&lt;/code&gt;&lt;/div&gt;" style="whiteSpace=wrap;html=1;" vertex="1" parent="1">
          <mxGeometry x="31.25" y="290" width="120" height="60" as="geometry" />
        </mxCell>
        <mxCell id="_FEhoYvMoS7OMi0GwKXW-13" value="Кінець" style="ellipse;whiteSpace=wrap;html=1;" vertex="1" parent="1">
          <mxGeometry x="46.25" y="370" width="90" height="50" as="geometry" />
        </mxCell>
        <mxCell id="_FEhoYvMoS7OMi0GwKXW-17" value="" style="edgeStyle=orthogonalEdgeStyle;rounded=0;orthogonalLoop=1;jettySize=auto;html=1;" edge="1" parent="1" source="_FEhoYvMoS7OMi0GwKXW-15" target="_FEhoYvMoS7OMi0GwKXW-16">
          <mxGeometry relative="1" as="geometry" />
        </mxCell>
        <mxCell id="_FEhoYvMoS7OMi0GwKXW-15" value="Початок&lt;div&gt;функції&lt;/div&gt;" style="ellipse;whiteSpace=wrap;html=1;" vertex="1" parent="1">
          <mxGeometry x="186.25" y="10" width="90" height="50" as="geometry" />
        </mxCell>
        <mxCell id="_FEhoYvMoS7OMi0GwKXW-19" value="" style="edgeStyle=orthogonalEdgeStyle;rounded=0;orthogonalLoop=1;jettySize=auto;html=1;" edge="1" parent="1" source="_FEhoYvMoS7OMi0GwKXW-16" target="_FEhoYvMoS7OMi0GwKXW-18">
          <mxGeometry relative="1" as="geometry" />
        </mxCell>
        <mxCell id="_FEhoYvMoS7OMi0GwKXW-16" value="Ініціалізація змінних" style="whiteSpace=wrap;html=1;" vertex="1" parent="1">
          <mxGeometry x="193.75" y="80" width="75" height="45" as="geometry" />
        </mxCell>
        <mxCell id="_FEhoYvMoS7OMi0GwKXW-21" value="" style="edgeStyle=orthogonalEdgeStyle;rounded=0;orthogonalLoop=1;jettySize=auto;html=1;" edge="1" parent="1" source="_FEhoYvMoS7OMi0GwKXW-18" target="_FEhoYvMoS7OMi0GwKXW-20">
          <mxGeometry relative="1" as="geometry" />
        </mxCell>
        <mxCell id="_FEhoYvMoS7OMi0GwKXW-18" value="Обчислення загальної кількості слів" style="whiteSpace=wrap;html=1;" vertex="1" parent="1">
          <mxGeometry x="190" y="147.5" width="82.5" height="45" as="geometry" />
        </mxCell>
        <mxCell id="_FEhoYvMoS7OMi0GwKXW-23" value="" style="edgeStyle=orthogonalEdgeStyle;rounded=0;orthogonalLoop=1;jettySize=auto;html=1;" edge="1" parent="1" source="_FEhoYvMoS7OMi0GwKXW-20" target="_FEhoYvMoS7OMi0GwKXW-22">
          <mxGeometry relative="1" as="geometry" />
        </mxCell>
        <mxCell id="_FEhoYvMoS7OMi0GwKXW-20" value="Обчислення довжини відрізка" style="whiteSpace=wrap;html=1;" vertex="1" parent="1">
          <mxGeometry x="193.75" y="220" width="75" height="45" as="geometry" />
        </mxCell>
        <mxCell id="_FEhoYvMoS7OMi0GwKXW-25" value="" style="edgeStyle=orthogonalEdgeStyle;rounded=0;orthogonalLoop=1;jettySize=auto;html=1;" edge="1" parent="1" source="_FEhoYvMoS7OMi0GwKXW-22" target="_FEhoYvMoS7OMi0GwKXW-24">
          <mxGeometry relative="1" as="geometry" />
        </mxCell>
        <mxCell id="_FEhoYvMoS7OMi0GwKXW-22" value="Вивід результатів" style="shape=parallelogram;perimeter=parallelogramPerimeter;whiteSpace=wrap;html=1;fixedSize=1;" vertex="1" parent="1">
          <mxGeometry x="170" y="290" width="122.5" height="45" as="geometry" />
        </mxCell>
        <mxCell id="_FEhoYvMoS7OMi0GwKXW-24" value="Кінець&lt;div&gt;функції&lt;/div&gt;" style="ellipse;whiteSpace=wrap;html=1;" vertex="1" parent="1">
          <mxGeometry x="186.25" y="360" width="90" height="50" as="geometry" />
        </mxCell>
      </root>
    </mxGraphModel>
  </diagram>
</mxfile>
